<svg width="42" height="42" viewBox="0 0 42 42" fill="none" xmlns="http://www.w3.org/2000/svg">
<path d="M0 16.4062H42V25.5938H0V16.4062Z" fill="#137A08"/>
<path d="M35.4375 6.5625H6.5625C2.21353 6.5625 0 9.79453 0 13.7812V16.4062H42V13.7812C42 9.79453 39.7865 6.5625 35.4375 6.5625Z" fill="#F9CB38"/>
<path d="M0 28.2188C0 32.2055 2.21353 35.4375 6.5625 35.4375H35.4375C39.7865 35.4375 42 32.2055 42 28.2188V25.5938H0V28.2188Z" fill="#EC1C24"/>
<path d="M31.8983 17.9347L23.6316 17.9484L21.0722 9.58584L18.5259 17.9484L10.2526 17.9347L16.9529 23.0278L14.3548 31.332L21.0787 26.1706L27.8119 31.332L25.2066 23.0278L31.8983 17.9347Z" fill="#E6E7E8"/>
</svg>
