<svg width="24" height="24" viewBox="0 0 24 24" fill="none" xmlns="http://www.w3.org/2000/svg">
<path d="M12 17.275L7.84999 19.775C7.66666 19.8917 7.47499 19.9417 7.27499 19.925C7.07499 19.9083 6.89999 19.8417 6.74999 19.725C6.59999 19.6083 6.48333 19.4627 6.39999 19.288C6.31666 19.1133 6.29999 18.9173 6.34999 18.7L7.44999 13.975L3.77499 10.8C3.60833 10.65 3.50433 10.479 3.46299 10.287C3.42166 10.095 3.43399 9.90768 3.49999 9.72501C3.56599 9.54235 3.66599 9.39235 3.79999 9.27501C3.93399 9.15768 4.11733 9.08268 4.34999 9.05001L9.19999 8.62501L11.075 4.17501C11.1583 3.97501 11.2877 3.82501 11.463 3.72501C11.6383 3.62501 11.8173 3.57501 12 3.57501C12.1827 3.57501 12.3617 3.62501 12.537 3.72501C12.7123 3.82501 12.8417 3.97501 12.925 4.17501L14.8 8.62501L19.65 9.05001C19.8833 9.08335 20.0667 9.15835 20.2 9.27501C20.3333 9.39168 20.4333 9.54168 20.5 9.72501C20.5667 9.90835 20.5793 10.096 20.538 10.288C20.4967 10.48 20.3923 10.6507 20.225 10.8L16.55 13.975L17.65 18.7C17.7 18.9167 17.6833 19.1127 17.6 19.288C17.5167 19.4633 17.4 19.609 17.25 19.725C17.1 19.841 16.925 19.9077 16.725 19.925C16.525 19.9423 16.3333 19.8923 16.15 19.775L12 17.275Z" fill="#FFA600"/>
</svg>
